<svg width="26" height="32" viewBox="0 0 26 32" fill="none" xmlns="http://www.w3.org/2000/svg">
<path d="M12.2485 31.6573C12.5164 31.8487 12.8375 31.9516 13.1668 31.9516C13.4961 31.9516 13.8172 31.8487 14.0851 31.6573C14.5665 31.3169 25.8794 23.1485 25.8335 12.9518C25.8335 5.96774 20.1509 0.285156 13.1668 0.285156C6.18272 0.285156 0.500139 5.96774 0.500139 12.9439C0.454223 23.1485 11.7671 31.3169 12.2485 31.6573ZM13.1668 3.45182C18.4061 3.45182 22.6668 7.71257 22.6668 12.9597C22.7001 19.9866 15.7191 26.2962 13.1668 28.3656C10.6161 26.2946 3.63356 19.9834 3.66681 12.9518C3.66681 7.71257 7.92756 3.45182 13.1668 3.45182Z" fill="#2091F9"/>
</svg>
